<?xml version="1.0" encoding="UTF-8"?>
<svg width="12px" height="12px" viewBox="0 0 12 12" version="1.1" xmlns="http://www.w3.org/2000/svg" xmlns:xlink="http://www.w3.org/1999/xlink">
    <!-- Generator: Sketch 47.1 (45422) - http://www.bohemiancoding.com/sketch -->
    <title>bus</title>
    <desc>Created with Sketch.</desc>
    <defs></defs>
    <g id="Page-1" stroke="none" stroke-width="1" fill="none" fill-rule="evenodd" opacity="0.200000003">
        <g id="1.大屏-框架" transform="translate(-185.000000, -6.000000)" fill-rule="nonzero" fill="#FFFFFF">
            <g id="top">
                <g id="bus" transform="translate(185.000000, 2.000000)">
                    <path d="M11,7 C3.66666667,5 3.66666667,5 11,7 L11,6 C11.0400005,5.28400342 10.7502057,4.81504734 10,5 C10.3960747,4.6380442 9.12000151,4 6,4 C2.87996086,4 1.60402566,4.6380442 2,5 C1.24979434,4.81504734 0.959986955,5.28400342 1,6 L1,7 L1,7 C0.323988698,6.88000452 0,7.20399389 0,8 L0,8 C0,8.7159903 0.323988698,9.03997968 1,9 L1,9 C1,12.6841116 1,14.6841116 1,15 L1,15 C1.43999298,15.56801 1.87198209,16 2,16 C2.92800286,16 3.35999197,15.5679849 3,15 L3,15 L9,15 L9,15 C8.64000803,15.56801 9.07199714,16 10,16 C10.1280179,16 10.560007,15.5679849 11,15 L11,15 C11,15 11,13 11,9 L11,9 C11.6760113,9.03997968 12,8.7159903 12,8 L12,8 C12,7.20400643 11.6760113,6.88000452 11,7 C3.66666667,5 3.66666667,5 11,7 Z M3.5,5 L3.5,5 L8.5,5 L8.5,5 L8.5,6 L8.5,6 L3.5,6 L3.5,6 L3.5,5 Z M2,14 C2,14 2,14 2,14 C2,14 2,13 2,13 C2.77610645,13 3,13.2239981 3,14 C3,14 3,14 3,14 L2,14 Z M10,14 C9.33333333,14 9,14 9,14 C9,13.2239981 9.22379947,13 10,13 C10,13 10,13.2239981 10,14 C10,13.8506679 10,13.8506679 10,14 Z M10,11 C10,10.8999997 9.89411727,11 10,11 L2,11 C2.10588273,11 2,10.8999997 2,11 L2,7 C2,7.10000029 2.10588273,7 2,7 L10,7 C9.89411727,7 10,7.10000029 10,7 L10,11 Z"></path>
                </g>
            </g>
        </g>
    </g>
</svg>