<?xml version="1.0" encoding="UTF-8"?>
<svg width="159px" height="20px" viewBox="0 0 159 20" version="1.1" xmlns="http://www.w3.org/2000/svg" xmlns:xlink="http://www.w3.org/1999/xlink">
    <!-- Generator: Sketch 47.1 (45422) - http://www.bohemiancoding.com/sketch -->
    <title>logoName</title>
    <desc>Created with Sketch.</desc>
    <defs></defs>
    <g id="Page-1" stroke="none" stroke-width="1" fill="none" fill-rule="evenodd" opacity="0.800000012">
        <g id="大屏-集团-" transform="translate(-8.000000, -5.000000)" fill="#FFFFFF">
            <g id="top">
                <g id="logoName" transform="translate(8.000000, 5.000000)">
                    <path d="M10.1612903,19.9944309 L10.1612903,20 L0,20 L0,0 L10.1612903,0 L10.1612903,0.00556909639 C12.8549114,0.129843608 15,2.31839194 15,5 C15,7.68160806 12.8549114,9.87015639 10.1612903,9.9944309 L10.1612903,10.0055691 C12.8549114,10.1298436 15,12.3183919 15,15 C15,17.6816081 12.8549114,19.8701564 10.1612903,19.9944309 Z M5.35955781,0 C2.72269694,3.40126786 2.25496548,6.46044845 3.95636342,9.17754175 C6.50846034,13.2531817 8.70710416,15.5398557 4.65877047,20 C4.65877047,20 5.79423553,20 8.06516567,20 C10.5278195,16.8233568 10.5757504,13.6517958 8.20895845,10.4853171 C4.65877047,5.73559899 6.00281349,2.85517954 9.21958971,0 C9.21835884,0 7.93168155,0 5.35955781,0 Z" id="Combined-Shape"></path>
                    <path d="M19.984375,3.84375 L32.234375,3.84375 L32.234375,10.2421875 C32.2708335,11.481777 31.742193,12.0833335 30.6484375,12.046875 L22.0625,12.046875 L22.0625,14.015625 C22.0625,14.3072931 22.1901029,14.453125 22.4453125,14.453125 L32.234375,14.453125 L32.234375,16.0390625 L22.0078125,16.0390625 C20.5494719,16.148438 19.8749995,15.4739656 19.984375,14.015625 L19.984375,3.84375 Z M25.125,10.4609375 L25.125,5.5390625 L22.0625,5.5390625 L22.0625,10.4609375 L25.125,10.4609375 Z M29.9375,10.4609375 C30.2291681,10.497396 30.356771,10.3697931 30.3203125,10.078125 L30.3203125,5.5390625 L27.09375,5.5390625 L27.09375,10.4609375 L29.9375,10.4609375 Z M34.09375,6.25 L39.234375,6.25 L39.234375,3.7890625 L41.3671875,3.7890625 L41.3671875,6.25 L46.5625,6.25 L46.5625,7.9453125 L41.3671875,7.9453125 L41.3671875,14.5078125 L46.1796875,14.5078125 L46.1796875,16.0390625 L34.3671875,16.0390625 L34.3671875,14.5078125 L39.234375,14.5078125 L39.234375,7.9453125 L34.09375,7.9453125 L34.09375,6.25 Z M48.09375,5.265625 L48.8046875,5.265625 C49.0598971,5.265625 49.2604159,5.13802211 49.40625,4.8828125 L50.1171875,3.734375 L51.9765625,3.734375 L51.703125,4.28125 L54,4.28125 L54.109375,3.734375 L56.2421875,3.734375 L56.1875,4.2265625 L60.453125,4.2265625 L60.453125,5.59375 L56.2421875,5.59375 L56.2421875,6.03125 L60.3984375,6.03125 L60.3984375,7.34375 L56.2421875,7.34375 L56.2421875,7.890625 L60.3984375,7.890625 L60.3984375,9.203125 L56.2421875,9.203125 L56.2421875,9.75 L60.34375,9.75 L60.34375,11.0078125 L50.7734375,11.0078125 L50.7734375,11.3359375 L48.8046875,11.3359375 L48.8046875,6.6328125 L48.09375,6.6328125 L48.09375,5.265625 Z M54.109375,5.6484375 L50.7734375,5.6484375 L50.7734375,6.0859375 L54.109375,6.0859375 L54.109375,5.6484375 Z M54.109375,7.9453125 L54.109375,7.453125 L50.7734375,7.453125 L50.7734375,7.9453125 L54.109375,7.9453125 Z M54.109375,9.75 L54.109375,9.2578125 L50.7734375,9.2578125 L50.7734375,9.75 L54.109375,9.75 Z M53.2890625,11.828125 L53.2890625,11.4453125 L55.09375,11.4453125 L55.09375,11.7734375 L60.3984375,11.7734375 L60.3984375,13.140625 L55.1484375,13.140625 L55.1484375,15.984375 L53.2890625,15.984375 L53.2890625,13.1953125 L48.0390625,13.1953125 L48.0390625,11.828125 L53.2890625,11.828125 Z M57.828125,15.9296875 C57.2083302,15.966146 56.8437505,15.7291692 56.734375,15.21875 L56.078125,13.5234375 L57.828125,13.5234375 L58.265625,14.34375 C58.3750005,14.6354181 58.6302063,14.763021 59.03125,14.7265625 L60.34375,14.7265625 L60.34375,15.9296875 L57.828125,15.9296875 Z M49.2421875,14.8359375 C49.6067727,14.8359375 49.8255205,14.7447926 49.8984375,14.5625 L50.4453125,13.6328125 L52.0859375,13.6328125 L51.1015625,15.546875 C50.9557284,15.9114602 50.5729198,16.075521 49.953125,16.0390625 L48.0390625,16.0390625 L48.0390625,14.8359375 L49.2421875,14.8359375 Z M74.234375,3.7890625 L74.234375,15 C74.2708335,15.7656288 73.8880248,16.1302085 73.0859375,16.09375 L62.3671875,16.09375 L62.3671875,3.7890625 L74.234375,3.7890625 Z M72.4296875,5.484375 L64.171875,5.484375 L64.171875,14.671875 L72.15625,14.671875 C72.3385426,14.6354165 72.4296875,14.5078136 72.4296875,14.2890625 L72.4296875,5.484375 Z M69.3671875,6.6875 L69.3671875,5.921875 L71.171875,5.921875 L71.171875,6.6875 L71.9375,6.6875 L71.9375,8.21875 L71.171875,8.21875 L71.171875,13.140625 C71.2083335,13.9062538 70.9166698,14.2526045 70.296875,14.1796875 L68.21875,14.1796875 L68.21875,12.8671875 L69.09375,12.8671875 C69.2760426,12.8671875 69.3671875,12.7395846 69.3671875,12.484375 L69.3671875,8.2734375 L64.7734375,8.2734375 L64.7734375,6.6875 L69.3671875,6.6875 Z M65.703125,12.8671875 C65.9583346,12.903646 66.1406245,12.7395852 66.25,12.375 L67.453125,8.9296875 L69.1484375,8.9296875 L67.7265625,13.140625 C67.5442699,13.8697953 67.0520873,14.216146 66.25,14.1796875 L64.71875,14.1796875 L64.71875,12.8671875 L65.703125,12.8671875 Z M75.875,4.3359375 L76.75,4.3359375 L76.75,3.7890625 L78.6640625,3.7890625 L78.9921875,4.3359375 L85.1171875,4.3359375 L85.390625,3.734375 L87.3046875,3.734375 L87.3046875,4.3359375 L88.1796875,4.3359375 L88.1796875,5.8671875 L75.875,5.8671875 L75.875,4.3359375 Z M88.0703125,11.1171875 C88.106771,11.7369823 87.7968783,12.028646 87.140625,11.9921875 L75.875,11.9921875 L75.875,8.765625 L88.0703125,8.765625 L88.0703125,11.1171875 Z M77.8984375,10.734375 L85.828125,10.734375 C85.9739591,10.734375 86.046875,10.6432301 86.046875,10.4609375 L86.046875,10.0234375 L77.8984375,10.0234375 L77.8984375,10.734375 Z M88.125,12.484375 L88.125,15.2734375 C88.2343755,15.9661493 87.8515669,16.276042 86.9765625,16.203125 L75.9296875,16.203125 L75.9296875,12.484375 L88.125,12.484375 Z M85.71875,14.9453125 C86.0468766,14.981771 86.1927085,14.8541681 86.15625,14.5625 L86.15625,13.796875 L77.953125,13.796875 L77.953125,14.9453125 L85.71875,14.9453125 Z M77.84375,8.328125 L75.9296875,8.328125 L75.9296875,6.4140625 L88.125,6.4140625 L88.125,8.328125 L86.2109375,8.328125 L86.2109375,7.8359375 L77.84375,7.8359375 L77.84375,8.328125 Z M94.0859375,12.3203125 L95.5078125,9.203125 L94.1953125,9.203125 L94.1953125,7.5078125 L102.617188,7.5078125 L102.617188,9.203125 L97.421875,9.203125 L96.21875,11.8828125 L100.757812,11.8828125 C100.867188,11.8828125 100.921875,11.8281255 100.921875,11.71875 L100.921875,10.4609375 L102.5625,10.4609375 L102.5625,12.2109375 C102.598959,13.0130248 102.161463,13.3958335 101.25,13.359375 L94.0859375,13.359375 L94.0859375,12.3203125 Z M93.3203125,5.8125 L91.1875,5.8125 L91.1875,3.7890625 L93.3203125,3.7890625 L93.3203125,5.8125 Z M102.617187,3.84375 L102.617187,5.5390625 L94.140625,5.5390625 L94.140625,3.84375 L102.617187,3.84375 Z M91.40625,9.4765625 L90.421875,9.4765625 L90.421875,7.890625 L93.2109375,7.890625 L93.2109375,13.5234375 C93.4661471,14.1432323 93.9765587,14.507812 94.7421875,14.6171875 L102.5625,14.6171875 L102.5625,16.1484375 L94.3046875,16.1484375 C93.8671853,16.1484375 93.4479187,15.9661477 93.046875,15.6015625 C92.9374995,15.9661477 92.5364618,16.1302085 91.84375,16.09375 L90.421875,16.09375 L90.421875,14.7265625 L91.1328125,14.7265625 C91.3151051,14.7265625 91.40625,14.5989596 91.40625,14.34375 L91.40625,9.4765625 Z M110.382812,9.3125 C109.21614,9.34895852 108.66927,8.91146289 108.742188,8 L108.742188,3.8984375 L110.65625,3.8984375 L110.65625,4.6640625 L116.070312,4.6640625 L116.070312,6.25 L110.65625,6.25 L110.65625,7.3984375 C110.65625,7.61718859 110.765624,7.7265625 110.984375,7.7265625 L116.070312,7.7265625 L116.070312,9.3125 L110.382812,9.3125 Z M108.796875,9.75 L116.070312,9.75 L116.070312,15 C116.216147,15.9114629 115.669277,16.3125005 114.429687,16.203125 L108.796875,16.203125 L108.796875,9.75 Z M114.265625,12.375 L114.265625,11.390625 L110.65625,11.390625 L110.65625,12.375 L114.265625,12.375 Z M110.65625,14.78125 L113.882812,14.78125 C114.138022,14.7447915 114.265625,14.6171886 114.265625,14.3984375 L114.265625,13.90625 L110.65625,13.90625 L110.65625,14.78125 Z M105.898437,4.828125 L105.898437,3.84375 L107.8125,3.84375 L107.8125,4.828125 L108.523437,4.828125 L108.523437,6.3046875 L107.8125,6.3046875 L107.8125,7.125 L108.46875,7.125 L108.46875,8.65625 L107.8125,8.65625 L107.8125,14.890625 C107.776041,15.8020879 107.210943,16.2760415 106.117187,16.3125 L104.039062,16.3125 L104.039062,14.78125 L105.570312,14.78125 C105.825522,14.78125 105.953125,14.6354181 105.953125,14.34375 L105.953125,12.59375 L105.460937,13.5234375 C105.315103,13.8515641 104.932295,14.015625 104.3125,14.015625 L103.65625,14.015625 L103.65625,12.59375 L104.039062,12.59375 C104.184897,12.520833 104.367186,12.1744823 104.585937,11.5546875 L105.953125,7.6171875 L105.953125,6.4140625 L103.710937,6.4140625 L103.710937,4.828125 L105.898437,4.828125 Z M117.875,6.6328125 L117.875,4.828125 L120.007812,4.828125 L120.007812,3.6796875 L121.976562,3.6796875 L121.976562,4.7734375 L122.46875,4.7734375 L122.46875,6.6328125 L121.976562,6.6328125 L121.976562,7.5625 L122.359375,7.5625 L122.359375,9.2578125 L121.921875,9.2578125 L121.921875,14.7265625 C121.994792,15.6744839 121.648441,16.1119795 120.882812,16.0390625 L118.257812,16.0390625 L118.257812,14.5625 L119.734375,14.5625 C119.953126,14.5989585 120.044271,14.4713556 120.007812,14.1796875 L120.007812,11.8828125 L119.515625,12.8125 C119.369791,13.2135437 119.059898,13.3958335 118.585938,13.359375 L117.765625,13.359375 L117.765625,11.71875 L118.039062,11.71875 C118.257814,11.7552085 118.403645,11.6458346 118.476562,11.390625 L120.007812,8.1640625 L120.007812,6.6328125 L117.875,6.6328125 Z M124.820312,5.375 L124.820312,5.8671875 L122.90625,5.8671875 L122.90625,3.734375 L130.125,3.734375 L130.125,5.8671875 L128.265625,5.8671875 L128.265625,5.375 L124.820312,5.375 Z M122.851562,8.21875 L122.851562,6.6328125 L124.21875,6.6328125 L124.382812,6.1953125 L126.242188,6.1953125 L126.078125,6.6328125 L130.125,6.6328125 L130.125,8.21875 L125.476562,8.21875 L124.765625,9.96875 L125.96875,9.96875 L125.96875,8.765625 L127.9375,8.765625 L127.9375,9.96875 L130.070312,9.96875 L130.070312,11.5546875 L127.9375,11.5546875 L127.9375,12.703125 L130.070312,12.703125 L130.070312,14.5078125 L127.9375,14.5078125 L127.9375,16.203125 L125.96875,16.203125 L125.96875,14.5078125 L122.796875,14.5078125 L122.796875,12.703125 L125.96875,12.703125 L125.96875,11.5546875 L122.742188,11.5546875 L122.742188,10.1328125 L123.617188,8.21875 L122.851562,8.21875 Z M132.3125,4.8828125 L137.289062,4.8828125 L137.289062,3.8984375 L139.476562,3.8984375 L139.476562,4.8828125 L144.453125,4.8828125 L144.453125,13.6328125 C144.526042,14.7630265 144.052088,15.273438 143.03125,15.1640625 L139.421875,15.1640625 L139.421875,16.1484375 L137.398438,16.1484375 L137.398438,15.21875 L132.3125,15.21875 L132.3125,4.8828125 Z M137.34375,6.6875 L134.335938,6.6875 L134.335938,13.578125 L137.34375,13.578125 L137.34375,6.6875 Z M139.421875,13.5234375 L142.210938,13.5234375 C142.356772,13.5234375 142.429688,13.3958346 142.429688,13.140625 L142.429688,6.6875 L139.421875,6.6875 L139.421875,13.5234375 Z M145.929688,14.5625 C146.440107,14.5989585 146.658855,14.4531266 146.585938,14.125 L146.585938,3.7890625 L148.554688,3.7890625 L148.554688,14.6171875 C148.627605,15.6744845 148.117193,16.184896 147.023438,16.1484375 L145.929688,16.1484375 L145.929688,14.5625 Z M150.523438,16.203125 C149.575516,16.2395835 149.119791,15.7474009 149.15625,14.7265625 L149.15625,3.7890625 L151.070312,3.7890625 L151.070312,14.234375 C151.070312,14.4531261 151.234373,14.580729 151.5625,14.6171875 L155.335938,14.6171875 L155.335938,16.203125 L150.523438,16.203125 Z M153.476562,13.4140625 C152.492183,13.4869795 152.018229,13.0494839 152.054688,12.1015625 L152.054688,3.7890625 L154.078125,3.7890625 L154.078125,11.1171875 C154.078125,11.3359386 154.242186,11.4635415 154.570312,11.5 L155.335938,11.5 L155.335938,13.4140625 L153.476562,13.4140625 Z M157.46875,16.203125 C156.520829,16.203125 156.046875,15.8020873 156.046875,15 L156.046875,3.7890625 L158.015625,3.7890625 L158.015625,14.1796875 C157.979166,14.3984386 158.124998,14.5078125 158.453125,14.5078125 L158.453125,16.203125 L157.46875,16.203125 Z" id="巴士集团营运指挥中心"></path>
                </g>
            </g>
        </g>
    </g>
</svg>