<?xml version="1.0" encoding="UTF-8"?>
<svg width="8px" height="12px" viewBox="0 0 8 12" version="1.1" xmlns="http://www.w3.org/2000/svg" xmlns:xlink="http://www.w3.org/1999/xlink">
    <!-- Generator: Sketch 47.1 (45422) - http://www.bohemiancoding.com/sketch -->
    <title>park</title>
    <desc>Created with Sketch.</desc>
    <defs></defs>
    <g id="Page-1" stroke="none" stroke-width="1" fill="none" fill-rule="evenodd" opacity="0.200000003">
        <g id="1.大屏-框架" transform="translate(-943.000000, -6.000000)" fill="#FFFFFF">
            <g id="top">
                <g id="厂" transform="translate(943.000000, 0.000000)">
                    <g id="park" transform="translate(0.000000, 6.000000)">
                        <path d="M7.66666667,9 L7.66666667,9 L7.66666667,8.66666667 C7.68000017,8.42800114 7.58340189,8.27168245 7.33333333,8.33333333 C7.46535823,8.2126814 7.0400005,8 6,8 C4.95998695,8 4.53467522,8.2126814 4.66666667,8.33333333 C4.41659811,8.27168245 4.31999565,8.42800114 4.33333333,8.66666667 L4.33333333,9 L4.33333333,9 C4.10799623,8.96000151 4,9.06799796 4,9.33333333 L4,9.33333333 C4,9.57199677 4.10799623,9.67999323 4.33333333,9.66666667 L4.33333333,9.66666667 L4.33333333,11.3333333 C4.31999565,11.423959 4.38707465,11.5127219 4.33333333,11.6666667 L4.33333333,11.6666667 C4.47999766,11.8560033 4.62399403,12 4.66666667,12 C4.97600095,12 5.11999732,11.855995 5,11.6666667 L5,11.6666667 L7,11.6666667 L7,11.6666667 C6.88000268,11.8560033 7.02399905,12 7.33333333,12 C7.37600597,12 7.52000234,11.855995 7.66666667,11.6666667 L7.66666667,11.6666667 C7.61292116,11.5127177 7.68000435,11.4239171 7.66666667,11.3333333 L7.66666667,9.66666667 L7.66666667,9.66666667 C7.89200377,9.67999323 8,9.57199677 8,9.33333333 L8,9.33333333 C8,9.06800214 7.89200377,8.96000151 7.66666667,9 L7.66666667,9 Z M5.33333333,8.33333333 C5.33333333,8.3708335 5.3708335,8.33333333 5.33333333,8.33333333 L7,8.33333333 C6.96249984,8.33333333 7,8.3708335 7,8.33333333 L7,8.66666667 C7,8.6291665 6.96249984,8.66666667 7,8.66666667 L5.33333333,8.66666667 C5.3708335,8.66666667 5.33333333,8.6291665 5.33333333,8.66666667 L5.33333333,8.33333333 Z M4.66666667,11.3333333 C4.74126649,11.3333333 4.66666667,11.2586673 4.66666667,11.3333333 C4.66666667,11.074666 4.74126649,11 4.66666667,11 C4.92536882,11 5,11.074666 5,11.3333333 C5,11.2586673 4.92536882,11.3333333 5,11.3333333 L4.66666667,11.3333333 Z M7.33333333,11.3333333 C7.07459982,11.3333333 7,11.2586673 7,11.3333333 C7,11.074666 7.07459982,11 7.33333333,11 C7.25873351,11 7.33333333,11.074666 7.33333333,11.3333333 C7.33333333,11.2586673 7.25873003,11.3333333 7.33333333,11.3333333 Z M7.33333333,10.3333333 C7.33333333,10.2999999 7.29803909,10.3333333 7.33333333,10.3333333 L4.66666667,10.3333333 C4.70196091,10.3333333 4.66666667,10.2999999 4.66666667,10.3333333 L4.66666667,9 C4.66666667,9.03333343 4.70196091,9 4.66666667,9 L7.33333333,9 C7.29803909,9 7.33333333,9.03333343 7.33333333,9 L7.33333333,10.3333333 Z" id="Shape" fill-rule="nonzero"></path>
                        <path d="M1,0 L3.88475836,0 C6.62825279,0 8,1.17647059 8,3.52941176 C8,5.89915966 6.61152416,7.09243697 3.86802974,7.09243697 L1.37174721,7.09243697 L1.37174721,12 L0,12 L0,1 L-1.11022302e-16,1 C-1.78657678e-16,0.44771525 0.44771525,-9.5692398e-18 1,-1.11022302e-16 Z M1.37174721,1.19327731 L1.37174721,5.89915966 L3.80111524,5.89915966 C4.77137546,5.89915966 5.4739777,5.69747899 5.94237918,5.31092437 C6.39405204,4.92436975 6.62825279,4.33613445 6.62825279,3.52941176 C6.62825279,2.72268908 6.39405204,2.13445378 5.92565056,1.78151261 C5.45724907,1.37815126 4.75464684,1.19327731 3.80111524,1.19327731 L1.37174721,1.19327731 Z" id="P"></path>
                    </g>
                </g>
            </g>
        </g>
    </g>
</svg>