<?xml version="1.0" encoding="UTF-8"?>
<svg width="12px" height="10px" viewBox="0 0 12 10" version="1.1" xmlns="http://www.w3.org/2000/svg" xmlns:xlink="http://www.w3.org/1999/xlink">
    <!-- Generator: Sketch 47.1 (45422) - http://www.bohemiancoding.com/sketch -->
    <title>线路</title>
    <desc>Created with Sketch.</desc>
    <defs></defs>
    <g id="Page-1" stroke="none" stroke-width="1" fill="none" fill-rule="evenodd" opacity="0.200000003">
        <g id="1.大屏-框架" transform="translate(-1039.000000, -7.000000)" fill-rule="nonzero">
            <g id="top">
                <g id="厂-copy" transform="translate(1039.000000, 0.000000)">
                    <g id="线路" transform="translate(0.000000, 7.000000)">
                        <path d="M2.56085854,1.6062439 C2.25740488,2.60526829 1.4819122,6.12682927 1.11102439,7.41307317 C0.740136585,8.71180488 0.976156098,9.46107317 1.88651707,9.46107317 L3.59484878,9.46107317 L4.88733659,0.507317073 L3.59484878,0.507317073 C3.03289756,0.557268293 2.85307317,0.607219512 2.56085854,1.6062439 L2.56085854,1.6062439 Z M10.9114537,7.55043902 C10.6979122,6.83863415 9.83250732,2.64273171 9.57400976,1.74360976 C9.3155122,0.844487805 8.79851707,0.507317073 8.06798049,0.507317073 L7.02275122,0.507317073 L8.32647805,9.44858537 L10.3607415,9.44858537 C11.2149073,9.44858537 11.1249951,8.2622439 10.9114537,7.55043902 L10.9114537,7.55043902 Z" id="Shape" fill="#FFFFFF"></path>
                        <polygon id="Shape" fill="#B3CEFF" points="6.30345366 0.519804878 5.6291122 0.519804878 5.56167805 2.01834146 6.3708878 2.01834146"></polygon>
                        <polygon id="Shape" fill="#CCE1FF" points="6.40460488 2.76760976 5.5392 2.76760976 5.41557073 5.75219512 6.52823415 5.75219512"></polygon>
                        <polygon id="Shape" fill="#F0F6FF" points="5.38185366 6.50146341 5.25822439 9.49853659 6.67434146 9.49853659 6.5507122 6.50146341"></polygon>
                    </g>
                </g>
            </g>
        </g>
    </g>
</svg>